<?xml version="1.0" encoding="UTF-8" standalone="no"?>
<svg
   xmlns:dc="http://purl.org/dc/elements/1.1/"
   xmlns:cc="http://creativecommons.org/ns#"
   xmlns:rdf="http://www.w3.org/1999/02/22-rdf-syntax-ns#"
   xmlns:svg="http://www.w3.org/2000/svg"
   xmlns="http://www.w3.org/2000/svg"
   viewBox="0 0 160 46.666668"
   height="46.666668"
   width="160"
   xml:space="preserve"
   id="svg2"
   version="1.1"><metadata
     id="metadata8"><rdf:RDF><cc:Work
         rdf:about=""><dc:format>image/svg+xml</dc:format><dc:type
           rdf:resource="http://purl.org/dc/dcmitype/StillImage" /></cc:Work></rdf:RDF></metadata><defs
     id="defs6"><clipPath
       id="clipPath20"
       clipPathUnits="userSpaceOnUse"><path
         style="clip-rule:evenodd"
         id="path18"
         d="m 39.4941,10.42282 c 0.01905,0.28582 0.14767,0.60022 0.38586,0.94321 l 0.91462,1.32908 c 0.28585,0.40968 0.60976,0.6431 0.9718,0.70027 0.05717,0.0095 0.1191,0.01429 0.18579,0.01429 0.31442,0 0.66691,-0.11433 1.05755,-0.34299 0.02857,-0.01905 0.18102,-0.10718 0.45731,-0.26438 0.27629,-0.15721 0.50257,-0.2763 0.67884,-0.35728 0.17625,-0.08099 0.41683,-0.1834 0.72169,-0.30726 0.3049,-0.12386 0.62167,-0.21437 0.95036,-0.27153 0.32872,-0.05717 0.66455,-0.08575 1.00754,-0.08575 0.72407,0 1.2743,0.13815 1.65064,0.41444 0.37631,0.2763 0.56449,0.62881 0.56449,1.05755 0,0.31441 -0.10479,0.60499 -0.31442,0.87176 -0.20959,0.26677 -0.49304,0.50257 -0.85031,0.70741 -0.35729,0.20484 -0.76695,0.40968 -1.22903,0.61452 -0.46209,0.20484 -0.94798,0.41683 -1.45771,0.63596 -0.50971,0.21913 -1.02181,0.45493 -1.53629,0.70741 -0.51449,0.25248 -1.00276,0.55259 -1.46485,0.90034 -0.46209,0.34776 -0.87178,0.73123 -1.22904,1.15044 -0.35729,0.41921 -0.64072,0.92178 -0.85034,1.50772 -0.20959,0.58594 -0.31439,1.23142 -0.31439,1.93645 0,1.9055 0.70503,3.45131 2.11509,4.63748 1.41006,1.18617 3.19168,1.77925 5.34489,1.77925 1.12425,0 2.20559,-0.15958 3.24408,-0.47875 1.0385,-0.31917 1.84357,-0.67883 2.41523,-1.07899 0.49541,-0.36204 0.74313,-0.78601 0.74313,-1.27191 0,-0.28582 -0.08575,-0.5907 -0.25724,-0.91463 l -0.70025,-1.38625 c -0.14293,-0.27629 -0.30012,-0.48589 -0.47162,-0.62881 -0.17149,-0.14291 -0.3549,-0.21913 -0.55022,-0.22866 -0.19532,-0.0095 -0.38109,0.01191 -0.55736,0.06432 -0.17624,0.0524 -0.3787,0.13576 -0.60737,0.25009 -0.44778,0.21913 -0.78839,0.37872 -1.0218,0.47875 -0.23342,0.10004 -0.56689,0.20484 -1.0004,0.31441 -0.43349,0.10957 -0.86461,0.16435 -1.29335,0.16435 -0.77173,0 -1.34575,-0.13338 -1.72209,-0.40015 -0.37631,-0.26677 -0.56449,-0.61928 -0.56449,-1.05755 0,-0.32393 0.10479,-0.61928 0.31441,-0.88605 0.2096,-0.26677 0.49305,-0.50257 0.85032,-0.70741 0.35729,-0.20484 0.76933,-0.40492 1.2362,-0.60023 0.46683,-0.19531 0.95511,-0.39777 1.46484,-0.60738 0.50971,-0.2096 1.01942,-0.43587 1.52916,-0.67883 0.50971,-0.24295 0.99798,-0.53353 1.46481,-0.87176 0.46687,-0.33822 0.87892,-0.71455 1.23621,-1.129 0.35726,-0.41444 0.64072,-0.91701 0.85031,-1.50772 0.20962,-0.5907 0.31442,-1.23856 0.31442,-1.94359 0,-0.88606 -0.16436,-1.72208 -0.49305,-2.5081 C 53.34938,10.30134 52.88254,9.608227 52.27753,9.007994 51.67255,8.407761 50.89844,7.933779 49.95521,7.586023 49.01199,7.238271 47.96875,7.064396 46.82546,7.064396 c -1.33384,0 -2.60814,0.216749 -3.82288,0.650249 -1.21476,0.4335 -2.1556,0.91225 -2.8225,1.43626 -0.2382,0.190549 -0.41447,0.376334 -0.52879,0.557356 -0.10479,0.152441 -0.15719,0.347749 -0.15719,0.585939 0,0.04763 0,0.09051 0,0.12862 z m 15.80563,4.48742 c 0,1.16236 0.22389,2.24133 0.67168,3.23695 0.44781,0.99562 1.05279,1.83403 1.815,2.51524 0.76217,0.68122 1.66491,1.21475 2.70815,1.60061 1.04327,0.38587 2.15083,0.5788 3.32269,0.5788 1.59111,0 3.03449,-0.32632 4.33023,-0.97895 1.29573,-0.65263 2.32706,-1.58869 3.09404,-2.80821 0.76696,-1.21952 1.15043,-2.60099 1.15043,-4.14444 0,-1.53392 -0.38347,-2.90348 -1.15043,-4.10871 C 70.47454,9.596309 69.4456,8.672154 68.15464,8.02905 66.86365,7.385944 65.42741,7.064396 63.84585,7.064396 c -1.58158,0 -3.01782,0.321548 -4.30878,0.964654 -1.29099,0.643104 -2.31993,1.567259 -3.08689,2.77248 -0.76698,1.20523 -1.15045,2.57479 -1.15045,4.10871 z m 5.11625,0 c 0,-1.09566 0.33344,-1.97456 1.00037,-2.63672 0.66693,-0.66215 1.47676,-0.99323 2.4295,-0.99323 0.95275,0 1.76258,0.33108 2.42948,0.99323 0.66693,0.66216 1.0004,1.54106 1.0004,2.63672 0,1.11472 -0.33347,2.01267 -1.0004,2.69389 -0.6669,0.68121 -1.47673,1.02181 -2.42948,1.02181 -0.95274,0 -1.76257,-0.3406 -2.4295,-1.02181 -0.66693,-0.68122 -1.00037,-1.57917 -1.00037,-2.69389 z M 74.33517,9.036576 V 20.88395 c 0,1.0766 0.53831,1.6149 1.6149,1.6149 h 1.64347 c 1.04805,0 1.57203,-0.5383 1.57203,-1.6149 V 20.62671 L 79.137,20.24084 h 0.05717 c 0.42874,0.72409 1.03611,1.33861 1.82211,1.84356 0.78603,0.50496 1.77926,0.75744 2.97973,0.75744 0.79078,0 1.50294,-0.09766 2.13652,-0.29297 0.63359,-0.19532 1.20283,-0.50496 1.70779,-0.92893 0.50496,-0.42397 0.89318,-1.0099 1.16473,-1.75781 0.27154,-0.74791 0.4073,-1.63633 0.4073,-2.6653 V 9.036576 c 0,-1.076604 -0.53353,-1.6149 -1.6006,-1.6149 h -1.84358 c -1.07659,0 -1.6149,0.538296 -1.6149,1.6149 v 7.217034 c 0,0.69551 -0.13814,1.20284 -0.41444,1.52201 -0.27629,0.31917 -0.6955,0.47875 -1.25761,0.47875 -1.06709,0 -1.87931,-0.38109 -2.43664,-1.14329 -0.55736,-0.7622 -0.83604,-1.71969 -0.83604,-2.87252 V 9.036576 c 0,-1.076604 -0.53831,-1.6149 -1.6149,-1.6149 h -1.84357 c -1.07659,0 -1.6149,0.538296 -1.6149,1.6149 z M 90.51239,21.97007 c 0.21911,0.35252 0.63833,0.52878 1.25761,0.52878 h 2.28658 c 0.94323,0 1.55776,-0.43826 1.84358,-1.31479 l 1.78639,-5.63072 c 0.07623,-0.23818 0.16197,-0.55258 0.25725,-0.94321 0.09527,-0.39063 0.17149,-0.71932 0.22864,-0.98609 l 0.07147,-0.40015 h 0.05715 c 0.2001,0.95275 0.36681,1.70064 0.50018,2.24371 l 1.51486,5.64501 c 0.2477,0.92416 0.8527,1.38624 1.815,1.38624 h 2.1437 c 0.5907,0 1.0051,-0.16673 1.2433,-0.50019 0.1239,-0.18102 0.1858,-0.39539 0.1858,-0.64311 0,-0.2096 -0.0477,-0.44302 -0.1429,-0.70026 L 100.0589,5.806776 C 99.46817,4.234741 98.60595,3.086695 97.47218,2.362606 96.33842,1.638517 95.1046,1.276477 93.77077,1.276477 c -0.65741,0 -1.36241,0.12862 -2.11509,0.385862 -0.47639,0.161967 -0.78125,0.433496 -0.91465,0.814596 -0.04762,0.15244 -0.07145,0.304877 -0.07145,0.457317 0,0.266769 0.0667,0.543062 0.20007,0.828886 l 0.37159,0.84318 c 0.29534,0.647869 0.7336,0.971799 1.31479,0.971799 0.1048,0 0.21437,-0.00953 0.32869,-0.028584 0.38109,-0.095275 0.67645,-0.142911 0.88605,-0.142911 0.43826,0 0.84556,0.152438 1.2219,0.457317 0.37634,0.304881 0.65977,0.685975 0.85031,1.143294 L 96.1288,7.7075 90.54096,20.62671 c -0.13337,0.28582 -0.20007,0.54782 -0.20007,0.78601 0,0.2096 0.05718,0.39539 0.1715,0.55735 z M 105.9322,11.66615 c 0,0.78125 0.1786,1.47675 0.5359,2.08651 0.3573,0.60976 0.8193,1.1028 1.3862,1.47913 0.5669,0.37634 1.2338,0.68598 2.0008,0.92893 0.767,0.24295 1.5244,0.41206 2.2723,0.50733 0.7479,0.09528 1.522,0.14292 2.3223,0.14292 h 0.4287 v 0.27153 c 0,0.58118 -0.2001,1.00514 -0.6002,1.27191 -0.4002,0.26677 -0.9099,0.40015 -1.5291,0.40015 -0.848,0 -1.7579,-0.22865 -2.7297,-0.68597 -0.3144,-0.13339 -0.6049,-0.20008 -0.8717,-0.20008 -0.5526,0 -0.9814,0.30488 -1.2862,0.91464 l -0.3573,0.72885 c -0.162,0.33346 -0.243,0.63833 -0.243,0.91463 0,0.52401 0.2954,0.93845 0.8861,1.24333 1.6864,0.78126 3.3775,1.17188 5.0733,1.17188 2.0866,0 3.73,-0.54544 4.9305,-1.63634 1.2005,-1.0909 1.8007,-2.59384 1.8007,-4.50886 V 9.036576 c 0,-1.076604 -0.5383,-1.6149 -1.6149,-1.6149 h -1.4005 c -1.0767,0 -1.6149,0.547823 -1.6149,1.643484 v 0.114329 l 0.0285,0.285822 h -0.0571 c -0.0381,-0.066691 -0.0953,-0.152438 -0.1715,-0.25724 -0.0762,-0.104802 -0.2501,-0.295349 -0.5217,-0.571646 -0.2715,-0.276297 -0.5645,-0.521627 -0.8788,-0.735996 -0.3145,-0.214369 -0.7313,-0.407298 -1.2505,-0.57879 -0.5193,-0.171495 -1.06,-0.257243 -1.6221,-0.257243 -1.4386,0 -2.6176,0.438259 -3.537,1.314787 -0.9194,0.87653 -1.3791,1.972177 -1.3791,3.286967 z m 5.0019,0.47161 c 0,-0.37157 0.1238,-0.67883 0.3716,-0.92178 0.2476,-0.24295 0.6002,-0.36443 1.0575,-0.36443 0.705,0 1.3124,0.28106 1.8221,0.84318 0.5097,0.56212 0.7646,1.16711 0.7646,1.81498 v 0.41444 h -0.4716 c -0.4192,0 -0.8241,-0.03096 -1.2148,-0.09289 -0.3906,-0.06193 -0.7669,-0.1572 -1.129,-0.28582 -0.362,-0.12862 -0.6526,-0.31441 -0.8717,-0.55736 -0.2192,-0.24295 -0.3287,-0.52639 -0.3287,-0.85032 z" /></clipPath><clipPath
       id="clipPath26"
       clipPathUnits="userSpaceOnUse"><path
         id="path24"
         d="M -538,-15724 H 1825 V 141 H -538 Z" /></clipPath><clipPath
       id="clipPath36"
       clipPathUnits="userSpaceOnUse"><path
         style="clip-rule:evenodd"
         id="path34"
         d="m 11.07878,34.71663 c 7.41843,1.20341 19.96802,-1.32323 20.64211,-9.56103 0.55695,-6.80308 -7.75203,-10.62847 -11.52288,-4.0368 -0.64049,1.11988 -1.09863,2.4037 -1.52953,3.71713 -2.35158,7.47409 -4.01928,10.20013 -7.5897,9.8807 z" /></clipPath><clipPath
       id="clipPath42"
       clipPathUnits="userSpaceOnUse"><path
         id="path40"
         d="M -538,-15724 H 1825 V 141 H -538 Z" /></clipPath><clipPath
       id="clipPath48"
       clipPathUnits="userSpaceOnUse"><path
         id="path46"
         d="M 0,0 H 32 V 35 H 0 Z" /></clipPath><clipPath
       id="clipPath52"
       clipPathUnits="userSpaceOnUse"><path
         style="clip-rule:evenodd"
         id="path50"
         d="M 0,0.3398058 H 31.74757 V 35 H 0 Z" /></clipPath><clipPath
       id="clipPath56"
       clipPathUnits="userSpaceOnUse"><path
         id="path54"
         d="M 11,14 H 33 V 35 H 11 Z" /></clipPath><linearGradient
       id="linearGradient62"
       gradientTransform="matrix(1,0,0,-1,0,35)"
       gradientUnits="userSpaceOnUse"
       y2="1024"
       x2="0"
       y1="0"
       x1="0"><stop
         id="stop58"
         offset="0"
         style="stop-opacity:1;stop-color:#2550ff" /><stop
         id="stop60"
         offset="1"
         style="stop-opacity:1;stop-color:#04a9ff" /></linearGradient><linearGradient
       id="linearGradient68"
       spreadMethod="pad"
       gradientTransform="matrix(1,0,0,-1,0,35)"
       gradientUnits="userSpaceOnUse"
       y2="298.25241"
       x2="11.07878"
       y1="0"
       x1="11.07878"><stop
         id="stop64"
         offset="0"
         style="stop-opacity:1;stop-color:#2550ff" /><stop
         id="stop66"
         offset="1"
         style="stop-opacity:1;stop-color:#04a9ff" /></linearGradient><clipPath
       id="clipPath96"
       clipPathUnits="userSpaceOnUse"><path
         style="clip-rule:evenodd"
         id="path94"
         d="m 11.07878,34.71663 c 7.41843,1.20341 19.96802,-1.32323 20.64211,-9.56103 0.55695,-6.80308 -7.75203,-10.62847 -11.52288,-4.0368 -0.64049,1.11988 -1.09863,2.4037 -1.52953,3.71713 -2.35158,7.47409 -4.01928,10.20013 -7.5897,9.8807 z" /></clipPath><clipPath
       id="clipPath102"
       clipPathUnits="userSpaceOnUse"><path
         id="path100"
         d="M -538,-15724 H 1825 V 141 H -538 Z" /></clipPath><clipPath
       id="clipPath108"
       clipPathUnits="userSpaceOnUse"><path
         id="path106"
         d="M 0,0 H 32 V 35 H 0 Z" /></clipPath><clipPath
       id="clipPath112"
       clipPathUnits="userSpaceOnUse"><path
         style="clip-rule:evenodd"
         id="path110"
         d="M 0,0.3398058 H 31.74757 V 35 H 0 Z" /></clipPath><clipPath
       id="clipPath116"
       clipPathUnits="userSpaceOnUse"><path
         id="path114"
         d="M 11,14 H 33 V 35 H 11 Z" /></clipPath><linearGradient
       id="linearGradient122"
       gradientTransform="matrix(1,0,0,-1,0,35)"
       gradientUnits="userSpaceOnUse"
       y2="1024"
       x2="0"
       y1="0"
       x1="0"><stop
         id="stop118"
         offset="0"
         style="stop-opacity:1;stop-color:#2550ff" /><stop
         id="stop120"
         offset="1"
         style="stop-opacity:1;stop-color:#04a9ff" /></linearGradient><linearGradient
       id="linearGradient128"
       spreadMethod="pad"
       gradientTransform="matrix(1,0,0,-1,0,35)"
       gradientUnits="userSpaceOnUse"
       y2="0"
       x2="31.74757"
       y1="17.29744"
       x1="31.74757"><stop
         id="stop124"
         offset="0"
         style="stop-opacity:1;stop-color:#2550ff" /><stop
         id="stop126"
         offset="1"
         style="stop-opacity:1;stop-color:#04a9ff" /></linearGradient><clipPath
       id="clipPath156"
       clipPathUnits="userSpaceOnUse"><path
         style="clip-rule:evenodd"
         id="path154"
         d="m 0,26.4516 c 5.036645e-4,2.21101 1.872787,4.88194 5.294225,6.32957 2.607216,1.10315 4.57219,1.82732 6.144765,1.97347 3.48192,0.32365 4.87281,-2.12682 7.16586,-9.69993 0.03701,-0.12211 0.11186,-0.35146 0.14911,-0.47616 C 17.81583,27.54951 10.50195,23.22785 5.684388,22.8597 1.794434,22.56296 4.930073e-4,24.28585 0,26.44982 v 0.0018 0 z" /></clipPath><clipPath
       id="clipPath162"
       clipPathUnits="userSpaceOnUse"><path
         id="path160"
         d="M -538,-15724 H 1825 V 141 H -538 Z" /></clipPath><clipPath
       id="clipPath168"
       clipPathUnits="userSpaceOnUse"><path
         id="path166"
         d="M 0,0 H 32 V 35 H 0 Z" /></clipPath><clipPath
       id="clipPath172"
       clipPathUnits="userSpaceOnUse"><path
         style="clip-rule:evenodd"
         id="path170"
         d="M 0,0.3398058 H 31.74757 V 35 H 0 Z" /></clipPath><clipPath
       id="clipPath176"
       clipPathUnits="userSpaceOnUse"><path
         id="path174"
         d="M 0,22 H 19 V 35 H 0 Z" /></clipPath><linearGradient
       id="linearGradient182"
       gradientTransform="matrix(1,0,0,-1,0,35)"
       gradientUnits="userSpaceOnUse"
       y2="1024"
       x2="0"
       y1="0"
       x1="0"><stop
         id="stop178"
         offset="0"
         style="stop-opacity:1;stop-color:#00ff95" /><stop
         id="stop180"
         offset="1"
         style="stop-opacity:1;stop-color:#01d3c9" /></linearGradient><linearGradient
       id="linearGradient188"
       spreadMethod="pad"
       gradientTransform="matrix(1,0,0,-1,0,35)"
       gradientUnits="userSpaceOnUse"
       y2="298.46991"
       x2="0"
       y1="0.2174854"
       x1="0"><stop
         id="stop184"
         offset="0"
         style="stop-opacity:1;stop-color:#00ff95" /><stop
         id="stop186"
         offset="1"
         style="stop-opacity:1;stop-color:#01d3c9" /></linearGradient><clipPath
       id="clipPath216"
       clipPathUnits="userSpaceOnUse"><path
         style="clip-rule:evenodd"
         id="path214"
         d="m 0,26.4516 c 5.036645e-4,2.21101 1.872787,4.88194 5.294225,6.32957 2.607216,1.10315 4.57219,1.82732 6.144765,1.97347 3.48192,0.32365 4.87281,-2.12682 7.16586,-9.69993 0.03701,-0.12211 0.11186,-0.35146 0.14911,-0.47616 C 17.81583,27.54951 10.50195,23.22785 5.684388,22.8597 1.794434,22.56296 4.930073e-4,24.28585 0,26.44982 v 0.0018 0 z" /></clipPath><clipPath
       id="clipPath222"
       clipPathUnits="userSpaceOnUse"><path
         id="path220"
         d="M -538,-15724 H 1825 V 141 H -538 Z" /></clipPath><clipPath
       id="clipPath228"
       clipPathUnits="userSpaceOnUse"><path
         id="path226"
         d="M 0,0 H 32 V 35 H 0 Z" /></clipPath><clipPath
       id="clipPath232"
       clipPathUnits="userSpaceOnUse"><path
         style="clip-rule:evenodd"
         id="path230"
         d="M 0,0.3398058 H 31.74757 V 35 H 0 Z" /></clipPath><clipPath
       id="clipPath236"
       clipPathUnits="userSpaceOnUse"><path
         id="path234"
         d="M 0,22 H 19 V 35 H 0 Z" /></clipPath><linearGradient
       id="linearGradient242"
       gradientTransform="matrix(1,0,0,-1,0,35)"
       gradientUnits="userSpaceOnUse"
       y2="1024"
       x2="0"
       y1="0"
       x1="0"><stop
         id="stop238"
         offset="0"
         style="stop-opacity:1;stop-color:#00ff95" /><stop
         id="stop240"
         offset="1"
         style="stop-opacity:1;stop-color:#01d3c9" /></linearGradient><linearGradient
       id="linearGradient248"
       spreadMethod="pad"
       gradientTransform="matrix(1,0,0,-1,0,35)"
       gradientUnits="userSpaceOnUse"
       y2="9.4436178"
       x2="18.75396"
       y1="9.4436178"
       x1="0"><stop
         id="stop244"
         offset="0"
         style="stop-opacity:1;stop-color:#00ff95" /><stop
         id="stop246"
         offset="1"
         style="stop-opacity:1;stop-color:#01d3c9" /></linearGradient><clipPath
       id="clipPath276"
       clipPathUnits="userSpaceOnUse"><path
         style="clip-rule:evenodd"
         id="path274"
         d="m 0,10.89733 c 2.002677e-4,6.39086 7.900159,9.76836 11.54956,3.38901 0.64049,-1.11988 1.09863,-2.40369 1.52953,-3.71711 C 15.43042,3.095172 17.27802,0.3994632 20.84844,0.7191381 13.43001,-0.4844934 0.7007735,2.011802 0.02667167,10.24955 0.00874839,10.46848 6.735957e-6,10.68433 0,10.89684 v 4.9e-4 z" /></clipPath><clipPath
       id="clipPath282"
       clipPathUnits="userSpaceOnUse"><path
         id="path280"
         d="M -538,-15724 H 1825 V 141 H -538 Z" /></clipPath><clipPath
       id="clipPath288"
       clipPathUnits="userSpaceOnUse"><path
         id="path286"
         d="M 0,0 H 32 V 35 H 0 Z" /></clipPath><clipPath
       id="clipPath292"
       clipPathUnits="userSpaceOnUse"><path
         style="clip-rule:evenodd"
         id="path290"
         d="M 0,0.3398058 H 31.74757 V 35 H 0 Z" /></clipPath><clipPath
       id="clipPath296"
       clipPathUnits="userSpaceOnUse"><path
         id="path294"
         d="M 0,0 H 21 V 21 H 0 Z" /></clipPath><linearGradient
       id="linearGradient302"
       gradientTransform="matrix(1,0,0,-1,0,35)"
       gradientUnits="userSpaceOnUse"
       y2="1024"
       x2="0"
       y1="0"
       x1="0"><stop
         id="stop298"
         offset="0"
         style="stop-opacity:1;stop-color:#fb2056" /><stop
         id="stop300"
         offset="1"
         style="stop-opacity:1;stop-color:#fe600f" /></linearGradient><linearGradient
       id="linearGradient308"
       spreadMethod="pad"
       gradientTransform="matrix(1,0,0,-1,0,35)"
       gradientUnits="userSpaceOnUse"
       y2="315.5499"
       x2="0"
       y1="17.29744"
       x1="0"><stop
         id="stop304"
         offset="0"
         style="stop-opacity:1;stop-color:#fb2056" /><stop
         id="stop306"
         offset="1"
         style="stop-opacity:1;stop-color:#fe600f" /></linearGradient><clipPath
       id="clipPath336"
       clipPathUnits="userSpaceOnUse"><path
         style="clip-rule:evenodd"
         id="path334"
         d="m 0,10.89733 c 2.002677e-4,6.39086 7.900159,9.76836 11.54956,3.38901 0.64049,-1.11988 1.09863,-2.40369 1.52953,-3.71711 C 15.43042,3.095172 17.27802,0.3994632 20.84844,0.7191381 13.43001,-0.4844934 0.7007735,2.011802 0.02667167,10.24955 0.00874839,10.46848 6.735957e-6,10.68433 0,10.89684 v 4.9e-4 z" /></clipPath><clipPath
       id="clipPath342"
       clipPathUnits="userSpaceOnUse"><path
         id="path340"
         d="M -538,-15724 H 1825 V 141 H -538 Z" /></clipPath><clipPath
       id="clipPath348"
       clipPathUnits="userSpaceOnUse"><path
         id="path346"
         d="M 0,0 H 32 V 35 H 0 Z" /></clipPath><clipPath
       id="clipPath352"
       clipPathUnits="userSpaceOnUse"><path
         style="clip-rule:evenodd"
         id="path350"
         d="M 0,0.3398058 H 31.74757 V 35 H 0 Z" /></clipPath><clipPath
       id="clipPath356"
       clipPathUnits="userSpaceOnUse"><path
         id="path354"
         d="M 0,0 H 21 V 21 H 0 Z" /></clipPath><linearGradient
       id="linearGradient362"
       gradientTransform="matrix(1,0,0,-1,0,35)"
       gradientUnits="userSpaceOnUse"
       y2="1024"
       x2="0"
       y1="0"
       x1="0"><stop
         id="stop358"
         offset="0"
         style="stop-opacity:1;stop-color:#fb2056" /><stop
         id="stop360"
         offset="1"
         style="stop-opacity:1;stop-color:#fe600f" /></linearGradient><linearGradient
       id="linearGradient368"
       spreadMethod="pad"
       gradientTransform="matrix(1,0,0,-1,0,35)"
       gradientUnits="userSpaceOnUse"
       y2="34.566292"
       x2="10.42422"
       y1="17.29744"
       x1="10.42422"><stop
         id="stop364"
         offset="0"
         style="stop-opacity:1;stop-color:#fb2056" /><stop
         id="stop366"
         offset="1"
         style="stop-opacity:1;stop-color:#fe600f" /></linearGradient><clipPath
       id="clipPath396"
       clipPathUnits="userSpaceOnUse"><path
         style="clip-rule:evenodd"
         id="path394"
         d="M 31.74757,8.951331 C 31.74581,6.740717 29.87365,4.071062 26.45342,2.624022 23.84623,1.520841 21.88129,0.7966857 20.30873,0.6505091 16.82686,0.3265924 15.41467,2.817472 13.12165,10.39071 c -0.037,0.12212 -0.10696,0.35807 -0.14446,0.48277 1.33413,-4.180449 8.26857,1.30402 13.08607,1.67192 3.88856,0.29676 5.68258,-1.42486 5.68431,-3.587804 v -0.00627 10e-7 z" /></clipPath><clipPath
       id="clipPath402"
       clipPathUnits="userSpaceOnUse"><path
         id="path400"
         d="M -538,-15724 H 1825 V 141 H -538 Z" /></clipPath><clipPath
       id="clipPath408"
       clipPathUnits="userSpaceOnUse"><path
         id="path406"
         d="M 0,0 H 32 V 35 H 0 Z" /></clipPath><clipPath
       id="clipPath412"
       clipPathUnits="userSpaceOnUse"><path
         style="clip-rule:evenodd"
         id="path410"
         d="M 0,0.3398058 H 31.74757 V 35 H 0 Z" /></clipPath><clipPath
       id="clipPath416"
       clipPathUnits="userSpaceOnUse"><path
         id="path414"
         d="M 12,0 H 32 V 13 H 12 Z" /></clipPath><linearGradient
       id="linearGradient422"
       gradientTransform="matrix(1,0,0,-1,0,35)"
       gradientUnits="userSpaceOnUse"
       y2="1024"
       x2="0"
       y1="0"
       x1="0"><stop
         id="stop418"
         offset="0"
         style="stop-opacity:1;stop-color:#a805d2" /><stop
         id="stop420"
         offset="1"
         style="stop-opacity:1;stop-color:#3d30cd" /></linearGradient><linearGradient
       id="linearGradient428"
       spreadMethod="pad"
       gradientTransform="matrix(1,0,0,-1,0,35)"
       gradientUnits="userSpaceOnUse"
       y2="320.67361"
       x2="12.97719"
       y1="22.421221"
       x1="12.97719"><stop
         id="stop424"
         offset="0"
         style="stop-opacity:1;stop-color:#a805d2" /><stop
         id="stop426"
         offset="1"
         style="stop-opacity:1;stop-color:#3d30cd" /></linearGradient><clipPath
       id="clipPath456"
       clipPathUnits="userSpaceOnUse"><path
         style="clip-rule:evenodd"
         id="path454"
         d="M 31.74757,8.951331 C 31.74581,6.740717 29.87365,4.071062 26.45342,2.624022 23.84623,1.520841 21.88129,0.7966857 20.30873,0.6505091 16.82686,0.3265924 15.41467,2.817472 13.12165,10.39071 c -0.037,0.12212 -0.10696,0.35807 -0.14446,0.48277 1.33413,-4.180449 8.26857,1.30402 13.08607,1.67192 3.88856,0.29676 5.68258,-1.42486 5.68431,-3.587804 v -0.00627 10e-7 z" /></clipPath><clipPath
       id="clipPath462"
       clipPathUnits="userSpaceOnUse"><path
         id="path460"
         d="M -538,-15724 H 1825 V 141 H -538 Z" /></clipPath><clipPath
       id="clipPath468"
       clipPathUnits="userSpaceOnUse"><path
         id="path466"
         d="M 0,0 H 32 V 35 H 0 Z" /></clipPath><clipPath
       id="clipPath472"
       clipPathUnits="userSpaceOnUse"><path
         style="clip-rule:evenodd"
         id="path470"
         d="M 0,0.3398058 H 31.74757 V 35 H 0 Z" /></clipPath><clipPath
       id="clipPath476"
       clipPathUnits="userSpaceOnUse"><path
         id="path474"
         d="M 12,0 H 32 V 13 H 12 Z" /></clipPath><linearGradient
       id="linearGradient482"
       gradientTransform="matrix(1,0,0,-1,0,35)"
       gradientUnits="userSpaceOnUse"
       y2="1024"
       x2="0"
       y1="0"
       x1="0"><stop
         id="stop478"
         offset="0"
         style="stop-opacity:1;stop-color:#a805d2" /><stop
         id="stop480"
         offset="1"
         style="stop-opacity:1;stop-color:#3d30cd" /></linearGradient><linearGradient
       id="linearGradient488"
       spreadMethod="pad"
       gradientTransform="matrix(1,0,0,-1,0,35)"
       gradientUnits="userSpaceOnUse"
       y2="24.056841"
       x2="12.97719"
       y1="24.056841"
       x1="31.74757"><stop
         id="stop484"
         offset="0"
         style="stop-opacity:1;stop-color:#a805d2" /><stop
         id="stop486"
         offset="1"
         style="stop-opacity:1;stop-color:#3d30cd" /></linearGradient></defs><g
     transform="matrix(1.3333333,0,0,-1.3333333,0,46.666667)"
     id="g10"><g
       id="g12" /><g
       id="g14"><g
         clip-path="url(#clipPath20)"
         id="g16"><g
           clip-path="url(#clipPath26)"
           id="g22"><path
             id="path28"
             style="fill:#003322;fill-opacity:1;fill-rule:nonzero;stroke:none"
             d="m 34.4941,33.70121 h 90.4577 V -3.723523 H 34.4941 Z" /></g></g></g><g
       id="g30"><g
         clip-path="url(#clipPath36)"
         id="g32"><g
           clip-path="url(#clipPath42)"
           id="g38"><g
             id="g44" /><g
             id="g88"><g
               id="g86"
               clip-path="url(#clipPath48)"><g
                 id="g70" /><g
                 id="g84"><g
                   id="g82"
                   clip-path="url(#clipPath52)"><g
                     id="g80"
                     clip-path="url(#clipPath56)"><g
                       id="g74"><path
                         id="path72"
                         style="fill:url(#linearGradient62);stroke:none"
                         d="M 11,14 H 33 V 35 H 11 Z" /></g><g
                       id="g78"><path
                         id="path76"
                         style="fill:url(#linearGradient68);stroke:none"
                         d="M 11,14 H 33 V 35 H 11 Z" /></g></g></g></g></g></g></g></g></g><g
       id="g90"><g
         clip-path="url(#clipPath96)"
         id="g92"><g
           clip-path="url(#clipPath102)"
           id="g98"><g
             id="g104" /><g
             id="g148"><g
               id="g146"
               clip-path="url(#clipPath108)"><g
                 id="g130" /><g
                 id="g144"><g
                   id="g142"
                   clip-path="url(#clipPath112)"><g
                     id="g140"
                     clip-path="url(#clipPath116)"><g
                       id="g134"><path
                         id="path132"
                         style="fill:url(#linearGradient122);stroke:none"
                         d="M 11,14 H 33 V 35 H 11 Z" /></g><g
                       id="g138"><path
                         id="path136"
                         style="fill:url(#linearGradient128);stroke:none"
                         d="M 11,14 H 33 V 35 H 11 Z" /></g></g></g></g></g></g></g></g></g><g
       id="g150"><g
         clip-path="url(#clipPath156)"
         id="g152"><g
           clip-path="url(#clipPath162)"
           id="g158"><g
             id="g164" /><g
             id="g208"><g
               id="g206"
               clip-path="url(#clipPath168)"><g
                 id="g190" /><g
                 id="g204"><g
                   id="g202"
                   clip-path="url(#clipPath172)"><g
                     id="g200"
                     clip-path="url(#clipPath176)"><g
                       id="g194"><path
                         id="path192"
                         style="fill:url(#linearGradient182);stroke:none"
                         d="M 0,22 H 19 V 35 H 0 Z" /></g><g
                       id="g198"><path
                         id="path196"
                         style="fill:url(#linearGradient188);stroke:none"
                         d="M 0,22 H 19 V 35 H 0 Z" /></g></g></g></g></g></g></g></g></g><g
       id="g210"><g
         clip-path="url(#clipPath216)"
         id="g212"><g
           clip-path="url(#clipPath222)"
           id="g218"><g
             id="g224" /><g
             id="g268"><g
               id="g266"
               clip-path="url(#clipPath228)"><g
                 id="g250" /><g
                 id="g264"><g
                   id="g262"
                   clip-path="url(#clipPath232)"><g
                     id="g260"
                     clip-path="url(#clipPath236)"><g
                       id="g254"><path
                         id="path252"
                         style="fill:url(#linearGradient242);stroke:none"
                         d="M 0,22 H 19 V 35 H 0 Z" /></g><g
                       id="g258"><path
                         id="path256"
                         style="fill:url(#linearGradient248);stroke:none"
                         d="M 0,22 H 19 V 35 H 0 Z" /></g></g></g></g></g></g></g></g></g><g
       id="g270"><g
         clip-path="url(#clipPath276)"
         id="g272"><g
           clip-path="url(#clipPath282)"
           id="g278"><g
             id="g284" /><g
             id="g328"><g
               id="g326"
               clip-path="url(#clipPath288)"><g
                 id="g310" /><g
                 id="g324"><g
                   id="g322"
                   clip-path="url(#clipPath292)"><g
                     id="g320"
                     clip-path="url(#clipPath296)"><g
                       id="g314"><path
                         id="path312"
                         style="fill:url(#linearGradient302);stroke:none"
                         d="M 0,0 H 21 V 21 H 0 Z" /></g><g
                       id="g318"><path
                         id="path316"
                         style="fill:url(#linearGradient308);stroke:none"
                         d="M 0,0 H 21 V 21 H 0 Z" /></g></g></g></g></g></g></g></g></g><g
       id="g330"><g
         clip-path="url(#clipPath336)"
         id="g332"><g
           clip-path="url(#clipPath342)"
           id="g338"><g
             id="g344" /><g
             id="g388"><g
               id="g386"
               clip-path="url(#clipPath348)"><g
                 id="g370" /><g
                 id="g384"><g
                   id="g382"
                   clip-path="url(#clipPath352)"><g
                     id="g380"
                     clip-path="url(#clipPath356)"><g
                       id="g374"><path
                         id="path372"
                         style="fill:url(#linearGradient362);stroke:none"
                         d="M 0,0 H 21 V 21 H 0 Z" /></g><g
                       id="g378"><path
                         id="path376"
                         style="fill:url(#linearGradient368);stroke:none"
                         d="M 0,0 H 21 V 21 H 0 Z" /></g></g></g></g></g></g></g></g></g><g
       id="g390"><g
         clip-path="url(#clipPath396)"
         id="g392"><g
           clip-path="url(#clipPath402)"
           id="g398"><g
             id="g404" /><g
             id="g448"><g
               id="g446"
               clip-path="url(#clipPath408)"><g
                 id="g430" /><g
                 id="g444"><g
                   id="g442"
                   clip-path="url(#clipPath412)"><g
                     id="g440"
                     clip-path="url(#clipPath416)"><g
                       id="g434"><path
                         id="path432"
                         style="fill:url(#linearGradient422);stroke:none"
                         d="M 12,0 H 32 V 13 H 12 Z" /></g><g
                       id="g438"><path
                         id="path436"
                         style="fill:url(#linearGradient428);stroke:none"
                         d="M 12,0 H 32 V 13 H 12 Z" /></g></g></g></g></g></g></g></g></g><g
       id="g450"><g
         clip-path="url(#clipPath456)"
         id="g452"><g
           clip-path="url(#clipPath462)"
           id="g458"><g
             id="g464" /><g
             id="g508"><g
               id="g506"
               clip-path="url(#clipPath468)"><g
                 id="g490" /><g
                 id="g504"><g
                   id="g502"
                   clip-path="url(#clipPath472)"><g
                     id="g500"
                     clip-path="url(#clipPath476)"><g
                       id="g494"><path
                         id="path492"
                         style="fill:url(#linearGradient482);stroke:none"
                         d="M 12,0 H 32 V 13 H 12 Z" /></g><g
                       id="g498"><path
                         id="path496"
                         style="fill:url(#linearGradient488);stroke:none"
                         d="M 12,0 H 32 V 13 H 12 Z" /></g></g></g></g></g></g></g></g></g></g></svg>